<svg width="32" height="32" viewBox="0 0 32 32" fill="none" xmlns="http://www.w3.org/2000/svg">
<path fill-rule="evenodd" clip-rule="evenodd" d="M16 8.5C14.6193 8.5 13.5 9.61929 13.5 11V16C13.5 17.3807 14.6193 18.5 16 18.5C17.3807 18.5 18.5 17.3807 18.5 16V11C18.5 9.61929 17.3807 8.5 16 8.5ZM12.25 11C12.25 8.92893 13.9289 7.25 16 7.25C18.0711 7.25 19.75 8.92893 19.75 11V16C19.75 18.0711 18.0711 19.75 16 19.75C13.9289 19.75 12.25 18.0711 12.25 16V11Z" fill="#0E1114"/>
<path fill-rule="evenodd" clip-rule="evenodd" d="M16 21C16.3452 21 16.625 21.2798 16.625 21.625V24.125C16.625 24.4702 16.3452 24.75 16 24.75C15.6548 24.75 15.375 24.4702 15.375 24.125V21.625C15.375 21.2798 15.6548 21 16 21Z" fill="#0E1114"/>
<path fill-rule="evenodd" clip-rule="evenodd" d="M10.3327 16.0043C10.6755 15.9637 10.9863 16.2087 11.0269 16.5515C11.171 17.7692 11.7569 18.8917 12.6735 19.7062C13.5901 20.5207 14.7737 20.9706 15.9999 20.9706C17.2261 20.9706 18.4097 20.5207 19.3263 19.7062C20.2429 18.8917 20.8289 17.7692 20.973 16.5515C21.0136 16.2087 21.3244 15.9637 21.6672 16.0043C22.01 16.0449 22.2549 16.3557 22.2144 16.6985C22.0342 18.2201 21.302 19.6228 20.1566 20.6406C19.0112 21.6584 17.5322 22.2206 15.9999 22.2206C14.4677 22.2206 12.9886 21.6584 11.8432 20.6406C10.6978 19.6228 9.96566 18.2201 9.78552 16.6985C9.74494 16.3557 9.98993 16.0449 10.3327 16.0043Z" fill="#0E1114"/>
</svg>
